<?xml version="1.0" standalone="no"?>
<!DOCTYPE svg PUBLIC "-//W3C//DTD SVG 1.0//EN" "http://www.w3.org/TR/2001/REC-SVG-20010904/DTD/svg10.dtd">
<svg xmlns="http://www.w3.org/2000/svg" xmlns:xlink="http://www.w3.org/1999/xlink" id="body_1" width="64" height="64">

<g transform="matrix(1.4222224 0 0 1.4222224 0 0)">
	<g>
        <path d="M9 26C 17.5 24.5 30 24.5 36 26L36 26L38.5 13.5L31 25L30.7 10.9L25.5 24.5L22.5 10L19.5 24.5L14.3 10.9L14 25L6.5 13.5L9 26z" stroke="#000000" stroke-width="1.5" fill="#000000" fill-rule="nonzero" />
        <path d="M9 26C 9 28 10.5 28 11.5 30C 12.5 31.5 12.5 31 12 33.5C 10.5 34.5 11 36 11 36C 9.5 37.5 11 38.5 11 38.5C 17.5 39.5 27.5 39.5 34 38.5C 34 38.5 35.5 37.5 34 36C 34 36 34.5 34.5 33 33.5C 32.5 31 32.5 31.5 33.5 30C 34.5 28 36 28 36 26C 27.5 24.5 17.5 24.5 9 26z" stroke="#000000" stroke-width="1.5" fill="#000000" fill-rule="nonzero" />
        <path d="M11.5 30C 15 29 30 29 33.5 30" stroke="#000000" stroke-width="1.5" fill="#000000" fill-rule="nonzero" />
        <path d="M12 33.5C 18 32.5 27 32.5 33 33.5" stroke="#000000" stroke-width="1.5" fill="#000000" fill-rule="nonzero" />
        <path d="M8 12C 8 12.552285 7.804738 13.023689 7.4142137 13.414213C 7.0236897 13.804739 6.552285 14.000001 6 14C 5.4477153 14.000001 4.9763107 13.804739 4.5857863 13.414213C 4.195262 13.023689 4 12.552285 4 12C 4 11.447716 4.195262 10.976311 4.5857863 10.585787C 4.9763107 10.195263 5.4477153 10 6 10C 6.552285 10 7.0236897 10.195263 7.4142137 10.585787C 7.804738 10.976311 8 11.447716 8 12C 8 12.023273 7.999594 12.04654 7.9987817 12.069799" stroke="#000000" stroke-width="1.5" fill="#000000" fill-rule="nonzero" />
        <path d="M16 9C 16 9.552285 15.804738 10.023689 15.414213 10.414213C 15.023689 10.804738 14.552285 11 14 11C 13.447716 11 12.976311 10.804738 12.585787 10.414213C 12.195263 10.023689 12 9.552285 12 9C 12 8.447716 12.195263 7.9763107 12.585787 7.5857863C 12.976311 7.1952624 13.447716 7.0000005 14 7C 14.552285 7.0000005 15.023689 7.1952624 15.414213 7.5857863C 15.804738 7.9763107 16 8.447716 16 9C 16 9.023273 15.999594 9.04654 15.998781 9.069799" stroke="#000000" stroke-width="1.5" fill="#000000" fill-rule="nonzero" />
        <path d="M24.5 8C 24.5 8.552285 24.304739 9.023689 23.914213 9.414213C 23.52369 9.804738 23.052284 10 22.5 10C 21.947716 10 21.47631 9.804738 21.085787 9.414213C 20.695263 9.023689 20.5 8.552285 20.5 8C 20.5 7.4477158 20.695263 6.9763107 21.085787 6.5857863C 21.47631 6.195262 21.947716 6 22.5 6C 23.052284 6 23.52369 6.195262 23.914213 6.5857863C 24.304739 6.9763107 24.5 7.4477158 24.5 8C 24.5 8.023273 24.499596 8.04654 24.498781 8.069799" stroke="#000000" stroke-width="1.5" fill="#000000" fill-rule="nonzero" />
        <path d="M33 9C 33 9.552285 32.80474 10.023689 32.414215 10.414213C 32.02369 10.804738 31.552286 11 31 11C 30.447718 11 29.976313 10.804738 29.585787 10.414213C 29.195263 10.023689 29 9.552285 29 9C 29 8.447716 29.195263 7.9763107 29.585787 7.5857863C 29.976313 7.1952624 30.447718 7.0000005 31 7C 31.552286 7.0000005 32.02369 7.1952624 32.414215 7.5857863C 32.80474 7.9763107 33 8.447716 33 9C 33 9.023273 32.999596 9.04654 32.998783 9.069799" stroke="#000000" stroke-width="1.5" fill="#000000" fill-rule="nonzero" />
        <path d="M41 12C 41 12.552285 40.80474 13.023689 40.414215 13.414213C 40.02369 13.804739 39.552284 14.000001 39 14C 38.447716 14.000001 37.97631 13.804739 37.585785 13.414213C 37.195263 13.023689 37 12.552285 37 12C 37 11.447716 37.195263 10.976311 37.585785 10.585787C 37.97631 10.195263 38.447716 10 39 10C 39.552284 10 40.02369 10.195263 40.414215 10.585787C 40.80474 10.976311 41 11.447716 41 12C 41 12.023273 40.999596 12.04654 40.998783 12.069799" stroke="#000000" stroke-width="1.5" fill="#000000" fill-rule="nonzero" />
        <path d="M11 38.5C 18.447758 41.090977 26.552242 41.09098 34 38.5" stroke="#000000" stroke-width="1.5" fill="none" />
		<g>
            <path d="M11 29C 18.447758 26.40902 26.552242 26.409023 34 29" stroke="#FFFFFF" stroke-width="1.5" fill="none" />
            <path d="M12.5 31.5L32.5 31.5" stroke="#FFFFFF" stroke-width="1.5" fill="none" />
            <path d="M11.5 34.5C 18.642712 36.864674 26.357288 36.86467 33.5 34.5" stroke="#FFFFFF" stroke-width="1.5" fill="none" />
            <path d="M10.5 37.5C 18.249977 40.328587 26.750023 40.328583 34.5 37.5" stroke="#FFFFFF" stroke-width="1.5" fill="none" />
		</g>
	</g>
</g>
</svg>